<svg width="10" height="10" viewBox="0 0 10 10" fill="none" xmlns="http://www.w3.org/2000/svg">
<path d="M2.30667 9.11919C2.37407 9.15425 2.44975 9.17029 2.52558 9.16559C2.60141 9.16089 2.67452 9.13563 2.73708 9.09252L8.15375 5.34252C8.2091 5.30418 8.25433 5.25299 8.28557 5.19334C8.31681 5.13369 8.33313 5.06736 8.33313 5.00002C8.33313 4.93269 8.31681 4.86636 8.28557 4.80671C8.25433 4.74706 8.2091 4.69587 8.15375 4.65752L2.73708 0.907522C2.67457 0.864269 2.60142 0.838941 2.52555 0.83428C2.44967 0.829619 2.37397 0.845803 2.30664 0.88108C2.2393 0.916357 2.1829 0.969382 2.14354 1.03441C2.10418 1.09945 2.08336 1.17401 2.08333 1.25002V8.75002C2.08332 8.82608 2.10413 8.90069 2.14349 8.96577C2.18286 9.03084 2.23929 9.0839 2.30667 9.11919Z" fill="#195557"/>
</svg>
